# xmcd
#
# Track frame offsets: 
#        182
#        14440
#        28692
#        41810
#        57387
#        73320
#        108255
#        126082
#        142562
#        167390
#        193842
#        217075
#        237732
#        252467
#        270975
#        288327
#        306190
#
# Disc length: 4329 seconds
#
# Revision: 2
# Processed by: cddbd v1.5.1PL0 Copyright (c) Steve Scherf et al.
# Submitted via: ExactAudioCopy v0.95a5
#
DISCID=0110e711
DTITLE=Prism - Over 60 Minutes With...
DYEAR=1992
DGENRE=Classic Rock
TTITLE0=Good To Be Back
TTITLE1=Don't Let Him Know
TTITLE2=Cover Girl
TTITLE3=Young And Restless
TTITLE4=American Music
TTITLE5=Armageddon
TTITLE6=Virginia
TTITLE7=You Walked Away Again
TTITLE8=Mirror Man
TTITLE9=Night To Remember
TTITLE10=See Forever Eyes
TTITLE11=Flying
TTITLE12=Take Me Away
TTITLE13=It's Over
TTITLE14=Open Soul Surgery
TTITLE15=Take Me To The Kaptin
TTITLE16=Spaceship Superstar
EXTD=
EXTT0=
EXTT1=
EXTT2=
EXTT3=
EXTT4=
EXTT5=
EXTT6=
EXTT7=
EXTT8=
EXTT9=
EXTT10=
EXTT11=
EXTT12=
EXTT13=
EXTT14=
EXTT15=
EXTT16=
PLAYORDER=
